<mxfile host="app.diagrams.net" modified="2023-11-18T17:11:45.898Z" agent="Mozilla/5.0 (Windows NT 10.0; Win64; x64) AppleWebKit/537.36 (KHTML, like Gecko) Chrome/119.0.0.0 Safari/537.36" etag="6sCx9HSFiHOicoX_OcWN" version="22.1.3" type="github">
  <diagram id="C5RBs43oDa-KdzZeNtuy" name="Page-1">
    <mxGraphModel dx="1434" dy="750" grid="1" gridSize="10" guides="1" tooltips="1" connect="1" arrows="1" fold="1" page="1" pageScale="1" pageWidth="827" pageHeight="1169" math="0" shadow="0">
      <root>
        <mxCell id="WIyWlLk6GJQsqaUBKTNV-0" />
        <mxCell id="WIyWlLk6GJQsqaUBKTNV-1" parent="WIyWlLk6GJQsqaUBKTNV-0" />
        <mxCell id="zkfFHV4jXpPFQw0GAbJ--0" value="CharacterInfo&#xa;" style="swimlane;fontStyle=2;align=center;verticalAlign=top;childLayout=stackLayout;horizontal=1;startSize=26;horizontalStack=0;resizeParent=1;resizeLast=0;collapsible=1;marginBottom=0;rounded=0;shadow=0;strokeWidth=1;" parent="WIyWlLk6GJQsqaUBKTNV-1" vertex="1">
          <mxGeometry x="154" y="40" width="160" height="34" as="geometry">
            <mxRectangle x="230" y="140" width="160" height="26" as="alternateBounds" />
          </mxGeometry>
        </mxCell>
        <mxCell id="zkfFHV4jXpPFQw0GAbJ--4" value="" style="line;html=1;strokeWidth=1;align=left;verticalAlign=middle;spacingTop=-1;spacingLeft=3;spacingRight=3;rotatable=0;labelPosition=right;points=[];portConstraint=eastwest;" parent="zkfFHV4jXpPFQw0GAbJ--0" vertex="1">
          <mxGeometry y="26" width="160" height="8" as="geometry" />
        </mxCell>
        <mxCell id="zkfFHV4jXpPFQw0GAbJ--6" value="Player" style="swimlane;fontStyle=0;align=center;verticalAlign=top;childLayout=stackLayout;horizontal=1;startSize=26;horizontalStack=0;resizeParent=1;resizeLast=0;collapsible=1;marginBottom=0;rounded=0;shadow=0;strokeWidth=1;" parent="WIyWlLk6GJQsqaUBKTNV-1" vertex="1">
          <mxGeometry x="64" y="162" width="160" height="34" as="geometry">
            <mxRectangle x="130" y="380" width="160" height="26" as="alternateBounds" />
          </mxGeometry>
        </mxCell>
        <mxCell id="zkfFHV4jXpPFQw0GAbJ--9" value="" style="line;html=1;strokeWidth=1;align=left;verticalAlign=middle;spacingTop=-1;spacingLeft=3;spacingRight=3;rotatable=0;labelPosition=right;points=[];portConstraint=eastwest;" parent="zkfFHV4jXpPFQw0GAbJ--6" vertex="1">
          <mxGeometry y="26" width="160" height="8" as="geometry" />
        </mxCell>
        <mxCell id="zkfFHV4jXpPFQw0GAbJ--12" value="" style="endArrow=block;endSize=10;endFill=0;shadow=0;strokeWidth=1;rounded=0;edgeStyle=elbowEdgeStyle;elbow=vertical;" parent="WIyWlLk6GJQsqaUBKTNV-1" source="zkfFHV4jXpPFQw0GAbJ--6" target="zkfFHV4jXpPFQw0GAbJ--0" edge="1">
          <mxGeometry width="160" relative="1" as="geometry">
            <mxPoint x="134" y="143" as="sourcePoint" />
            <mxPoint x="134" y="143" as="targetPoint" />
          </mxGeometry>
        </mxCell>
        <mxCell id="zkfFHV4jXpPFQw0GAbJ--13" value="Enemy&#xa;" style="swimlane;fontStyle=0;align=center;verticalAlign=top;childLayout=stackLayout;horizontal=1;startSize=26;horizontalStack=0;resizeParent=1;resizeLast=0;collapsible=1;marginBottom=0;rounded=0;shadow=0;strokeWidth=1;" parent="WIyWlLk6GJQsqaUBKTNV-1" vertex="1">
          <mxGeometry x="254" y="162" width="160" height="34" as="geometry">
            <mxRectangle x="340" y="380" width="170" height="26" as="alternateBounds" />
          </mxGeometry>
        </mxCell>
        <mxCell id="zkfFHV4jXpPFQw0GAbJ--15" value="" style="line;html=1;strokeWidth=1;align=left;verticalAlign=middle;spacingTop=-1;spacingLeft=3;spacingRight=3;rotatable=0;labelPosition=right;points=[];portConstraint=eastwest;" parent="zkfFHV4jXpPFQw0GAbJ--13" vertex="1">
          <mxGeometry y="26" width="160" height="8" as="geometry" />
        </mxCell>
        <mxCell id="zkfFHV4jXpPFQw0GAbJ--16" value="" style="endArrow=block;endSize=10;endFill=0;shadow=0;strokeWidth=1;rounded=0;edgeStyle=elbowEdgeStyle;elbow=vertical;" parent="WIyWlLk6GJQsqaUBKTNV-1" source="zkfFHV4jXpPFQw0GAbJ--13" target="zkfFHV4jXpPFQw0GAbJ--0" edge="1">
          <mxGeometry width="160" relative="1" as="geometry">
            <mxPoint x="144" y="313" as="sourcePoint" />
            <mxPoint x="244" y="211" as="targetPoint" />
          </mxGeometry>
        </mxCell>
        <mxCell id="2bHiwxTbwmZ3w0ojm5-z-16" style="edgeStyle=orthogonalEdgeStyle;rounded=0;orthogonalLoop=1;jettySize=auto;html=1;dashed=1;endArrow=none;endFill=0;" edge="1" parent="WIyWlLk6GJQsqaUBKTNV-1" source="2bHiwxTbwmZ3w0ojm5-z-3">
          <mxGeometry relative="1" as="geometry">
            <mxPoint x="770" y="151" as="targetPoint" />
            <Array as="points">
              <mxPoint x="910" y="164" />
              <mxPoint x="911" y="164" />
            </Array>
          </mxGeometry>
        </mxCell>
        <mxCell id="2bHiwxTbwmZ3w0ojm5-z-3" value="Dungeon" style="rounded=0;whiteSpace=wrap;html=1;" vertex="1" parent="WIyWlLk6GJQsqaUBKTNV-1">
          <mxGeometry x="850" y="196" width="120" height="60" as="geometry" />
        </mxCell>
        <mxCell id="2bHiwxTbwmZ3w0ojm5-z-14" style="edgeStyle=orthogonalEdgeStyle;rounded=0;orthogonalLoop=1;jettySize=auto;html=1;dashed=1;endArrow=none;endFill=0;" edge="1" parent="WIyWlLk6GJQsqaUBKTNV-1" source="2bHiwxTbwmZ3w0ojm5-z-4">
          <mxGeometry relative="1" as="geometry">
            <mxPoint x="770" y="151" as="targetPoint" />
            <Array as="points">
              <mxPoint x="630" y="151" />
              <mxPoint x="631" y="151" />
            </Array>
          </mxGeometry>
        </mxCell>
        <mxCell id="2bHiwxTbwmZ3w0ojm5-z-4" value="Fight" style="rounded=0;whiteSpace=wrap;html=1;" vertex="1" parent="WIyWlLk6GJQsqaUBKTNV-1">
          <mxGeometry x="570" y="196" width="120" height="60" as="geometry" />
        </mxCell>
        <mxCell id="2bHiwxTbwmZ3w0ojm5-z-10" style="edgeStyle=orthogonalEdgeStyle;rounded=0;orthogonalLoop=1;jettySize=auto;html=1;entryX=0.5;entryY=1;entryDx=0;entryDy=0;endArrow=classic;endFill=1;dashed=1;" edge="1" parent="WIyWlLk6GJQsqaUBKTNV-1" source="2bHiwxTbwmZ3w0ojm5-z-5" target="2bHiwxTbwmZ3w0ojm5-z-8">
          <mxGeometry relative="1" as="geometry" />
        </mxCell>
        <mxCell id="2bHiwxTbwmZ3w0ojm5-z-5" value="Treasure" style="rounded=0;whiteSpace=wrap;html=1;" vertex="1" parent="WIyWlLk6GJQsqaUBKTNV-1">
          <mxGeometry x="710" y="196" width="120" height="60" as="geometry" />
        </mxCell>
        <mxCell id="2bHiwxTbwmZ3w0ojm5-z-8" value="EventInterface" style="rounded=0;whiteSpace=wrap;html=1;dashed=1;" vertex="1" parent="WIyWlLk6GJQsqaUBKTNV-1">
          <mxGeometry x="710" y="51" width="120" height="60" as="geometry" />
        </mxCell>
        <mxCell id="2bHiwxTbwmZ3w0ojm5-z-20" style="edgeStyle=orthogonalEdgeStyle;rounded=0;orthogonalLoop=1;jettySize=auto;html=1;dashed=1;endArrow=none;endFill=0;" edge="1" parent="WIyWlLk6GJQsqaUBKTNV-1" source="2bHiwxTbwmZ3w0ojm5-z-17">
          <mxGeometry relative="1" as="geometry">
            <mxPoint x="260" y="410" as="targetPoint" />
            <Array as="points">
              <mxPoint x="124" y="410" />
            </Array>
          </mxGeometry>
        </mxCell>
        <mxCell id="2bHiwxTbwmZ3w0ojm5-z-17" value="DamageGenericClass" style="rounded=0;whiteSpace=wrap;html=1;" vertex="1" parent="WIyWlLk6GJQsqaUBKTNV-1">
          <mxGeometry x="64" y="470" width="120" height="60" as="geometry" />
        </mxCell>
        <mxCell id="2bHiwxTbwmZ3w0ojm5-z-21" style="edgeStyle=orthogonalEdgeStyle;rounded=0;orthogonalLoop=1;jettySize=auto;html=1;endArrow=none;endFill=0;dashed=1;" edge="1" parent="WIyWlLk6GJQsqaUBKTNV-1" source="2bHiwxTbwmZ3w0ojm5-z-18">
          <mxGeometry relative="1" as="geometry">
            <mxPoint x="260" y="410" as="targetPoint" />
          </mxGeometry>
        </mxCell>
        <mxCell id="2bHiwxTbwmZ3w0ojm5-z-18" value="HealthGenericClass" style="rounded=0;whiteSpace=wrap;html=1;" vertex="1" parent="WIyWlLk6GJQsqaUBKTNV-1">
          <mxGeometry x="200" y="470" width="120" height="60" as="geometry" />
        </mxCell>
        <mxCell id="2bHiwxTbwmZ3w0ojm5-z-23" style="edgeStyle=orthogonalEdgeStyle;rounded=0;orthogonalLoop=1;jettySize=auto;html=1;endArrow=none;endFill=0;startArrow=classic;startFill=1;dashed=1;" edge="1" parent="WIyWlLk6GJQsqaUBKTNV-1" source="2bHiwxTbwmZ3w0ojm5-z-19">
          <mxGeometry relative="1" as="geometry">
            <mxPoint x="190" y="410" as="targetPoint" />
          </mxGeometry>
        </mxCell>
        <mxCell id="2bHiwxTbwmZ3w0ojm5-z-19" value="ItemType" style="rounded=0;whiteSpace=wrap;html=1;" vertex="1" parent="WIyWlLk6GJQsqaUBKTNV-1">
          <mxGeometry x="130" y="300" width="120" height="60" as="geometry" />
        </mxCell>
        <mxCell id="2bHiwxTbwmZ3w0ojm5-z-24" value="Item&amp;lt;T extends ItemType&amp;gt;" style="rounded=0;whiteSpace=wrap;html=1;" vertex="1" parent="WIyWlLk6GJQsqaUBKTNV-1">
          <mxGeometry x="740" y="320" width="120" height="60" as="geometry" />
        </mxCell>
        <mxCell id="2bHiwxTbwmZ3w0ojm5-z-27" style="edgeStyle=orthogonalEdgeStyle;rounded=0;orthogonalLoop=1;jettySize=auto;html=1;entryX=0.5;entryY=1;entryDx=0;entryDy=0;" edge="1" parent="WIyWlLk6GJQsqaUBKTNV-1" source="2bHiwxTbwmZ3w0ojm5-z-25" target="2bHiwxTbwmZ3w0ojm5-z-24">
          <mxGeometry relative="1" as="geometry" />
        </mxCell>
        <mxCell id="2bHiwxTbwmZ3w0ojm5-z-31" style="edgeStyle=orthogonalEdgeStyle;rounded=0;orthogonalLoop=1;jettySize=auto;html=1;entryX=0.5;entryY=0;entryDx=0;entryDy=0;dashed=1;" edge="1" parent="WIyWlLk6GJQsqaUBKTNV-1" source="2bHiwxTbwmZ3w0ojm5-z-25" target="2bHiwxTbwmZ3w0ojm5-z-29">
          <mxGeometry relative="1" as="geometry" />
        </mxCell>
        <mxCell id="2bHiwxTbwmZ3w0ojm5-z-25" value="Weapon" style="rounded=0;whiteSpace=wrap;html=1;" vertex="1" parent="WIyWlLk6GJQsqaUBKTNV-1">
          <mxGeometry x="830" y="450" width="120" height="60" as="geometry" />
        </mxCell>
        <mxCell id="2bHiwxTbwmZ3w0ojm5-z-28" style="edgeStyle=orthogonalEdgeStyle;rounded=0;orthogonalLoop=1;jettySize=auto;html=1;entryX=0.5;entryY=1;entryDx=0;entryDy=0;" edge="1" parent="WIyWlLk6GJQsqaUBKTNV-1" source="2bHiwxTbwmZ3w0ojm5-z-26" target="2bHiwxTbwmZ3w0ojm5-z-24">
          <mxGeometry relative="1" as="geometry" />
        </mxCell>
        <mxCell id="2bHiwxTbwmZ3w0ojm5-z-30" style="edgeStyle=orthogonalEdgeStyle;rounded=0;orthogonalLoop=1;jettySize=auto;html=1;entryX=0.5;entryY=0;entryDx=0;entryDy=0;dashed=1;" edge="1" parent="WIyWlLk6GJQsqaUBKTNV-1" source="2bHiwxTbwmZ3w0ojm5-z-26" target="2bHiwxTbwmZ3w0ojm5-z-29">
          <mxGeometry relative="1" as="geometry" />
        </mxCell>
        <mxCell id="2bHiwxTbwmZ3w0ojm5-z-26" value="Armor" style="rounded=0;whiteSpace=wrap;html=1;" vertex="1" parent="WIyWlLk6GJQsqaUBKTNV-1">
          <mxGeometry x="660" y="450" width="120" height="60" as="geometry" />
        </mxCell>
        <mxCell id="2bHiwxTbwmZ3w0ojm5-z-29" value="Equippable" style="rounded=0;whiteSpace=wrap;html=1;dashed=1;" vertex="1" parent="WIyWlLk6GJQsqaUBKTNV-1">
          <mxGeometry x="740" y="580" width="120" height="60" as="geometry" />
        </mxCell>
      </root>
    </mxGraphModel>
  </diagram>
</mxfile>
